<svg xmlns="http://www.w3.org/2000/svg" width="319.504" height="691.407" viewBox="0 0 319.504 691.407" fill="none">
  <path d="M 44.914 0.113 C 39.275 0.285 33.966 0.834 29.987 1.655 C 18.339 4.06 9.303 10.937 4.586 20.988 C 2.414 25.614 1.274 30.112 0.439 37.341 C 0.124 40.073 0.09 64.376 0.021 342.562 C -0.032 557.738 0.012 646.077 0.174 649.203 C 0.684 659.072 2.223 665.995 5.137 671.527 C 10.934 682.534 20.889 688.828 35.275 690.582 C 41.134 691.297 41.354 691.299 154.395 691.378 C 267.929 691.46 276.62 691.408 283.049 690.701 C 294.313 689.448 301.597 686.301 308 679.919 C 314.301 673.637 317.477 666.333 318.762 655.169 C 318.942 653.604 319.183 649.878 319.294 646.892 C 319.572 639.5 319.575 51.95 319.296 44.56 C 319.078 38.793 318.722 34.995 318.051 31.295 C 315.179 15.431 304.675 4.715 288.916 1.566 C 281.991 0.182 275.591 -0.07 249.419 0.014 L 229.303 0.079 L 228.43 0.546 C 227.95 0.802 227.359 1.292 227.116 1.634 C 226.206 2.91 226.037 3.698 225.825 7.59 C 225.603 11.692 225.268 13.732 224.459 15.886 C 222.535 21.008 217.741 25.338 212.394 26.785 C 211.552 27.012 209.888 27.296 208.694 27.416 C 205.561 27.729 113.467 27.714 110.558 27.4 C 104.123 26.704 99.263 23.687 96.158 18.46 C 94.467 15.614 93.757 12.598 93.531 7.308 C 93.344 2.902 92.829 1.625 90.802 0.531 L 89.964 0.079 L 68.382 0.067 C 56.512 0.061 45.951 0.082 44.914 0.113 Z" fill="currentColor" fill-rule="nonzero"></path>
</svg>