<svg xmlns="http://www.w3.org/2000/svg" width="222.257" height="480.965" viewBox="0 0 222.257 480.965" fill="none">
  <path d="M 31.243 0.079 C 27.321 0.198 23.628 0.58 20.86 1.151 C 12.757 2.824 6.471 7.608 3.19 14.6 C 1.679 17.818 0.886 20.947 0.305 25.975 C 0.086 27.876 0.063 44.782 0.015 238.297 C -0.022 387.98 0.008 449.432 0.121 451.606 C 0.476 458.471 1.547 463.287 3.573 467.135 C 7.606 474.792 14.531 479.171 24.539 480.391 C 28.614 480.888 28.767 480.889 107.402 480.944 C 186.38 481.001 192.426 480.965 196.898 480.474 C 204.734 479.602 209.8 477.413 214.254 472.973 C 218.637 468.603 220.847 463.522 221.741 455.756 C 221.866 454.667 222.034 452.076 222.111 449.999 C 222.305 444.856 222.306 36.138 222.112 30.998 C 221.961 26.986 221.713 24.344 221.246 21.769 C 219.248 10.734 211.941 3.28 200.979 1.089 C 196.161 0.127 191.71 -0.048 173.503 0.01 L 159.511 0.055 L 158.903 0.38 C 158.569 0.558 158.158 0.899 157.989 1.136 C 157.356 2.024 157.238 2.573 157.091 5.28 C 156.937 8.133 156.703 9.552 156.141 11.051 C 154.803 14.614 151.468 17.626 147.748 18.632 C 147.162 18.791 146.005 18.988 145.174 19.071 C 142.995 19.289 78.931 19.279 76.908 19.06 C 72.432 18.576 69.051 16.477 66.891 12.841 C 65.714 10.861 65.22 8.763 65.063 5.084 C 64.933 2.019 64.575 1.131 63.165 0.37 L 62.581 0.055 L 47.568 0.047 C 39.311 0.042 31.965 0.057 31.243 0.079 Z" fill="currentColor" fill-rule="nonzero"></path>
</svg>