<svg xmlns="http://www.w3.org/2000/svg" width="28.256" height="35.672" viewBox="0 0 28.256 35.672" fill="none">
  <path d="M 23.972 11.42 C 23.735 11.19 23.401 11.085 23.075 11.138 C 22.748 11.192 22.466 11.397 22.314 11.691 C 21.793 12.704 21.131 13.635 20.351 14.458 C 20.429 13.864 20.468 13.266 20.468 12.666 C 20.468 11.516 20.314 10.332 20.01 9.147 C 19.009 5.255 16.386 1.963 12.813 0.117 C 12.502 -0.044 12.132 -0.038 11.825 0.132 C 11.519 0.302 11.319 0.614 11.291 0.963 C 11.013 4.5 9.191 7.718 6.291 9.793 C 6.252 9.821 6.214 9.849 6.176 9.877 C 6.097 9.934 6.023 9.989 5.953 10.035 C 5.942 10.042 5.931 10.05 5.921 10.057 C 4.097 11.363 2.591 13.104 1.568 15.093 C 0.527 17.115 0 19.286 0 21.543 C 0 22.693 0.154 23.877 0.458 25.062 C 2.063 31.309 7.685 35.672 14.128 35.672 C 21.918 35.672 28.256 29.334 28.256 21.543 C 28.256 17.702 26.735 14.107 23.972 11.42 L 23.972 11.42 Z" fill="currentColor" fill-rule="nonzero"></path>
</svg>